<?xml version="1.0" encoding="utf-8"?>
<!-- Generator: Adobe Illustrator 19.0.0, SVG Export Plug-In . SVG Version: 6.00 Build 0)  -->
<svg version="1.1" id="Layer_1" xmlns="http://www.w3.org/2000/svg" xmlns:xlink="http://www.w3.org/1999/xlink" x="0px" y="0px"
	 viewBox="-120 370.5 369.5 50.5" style="enable-background:new -120 370.5 369.5 50.5;" xml:space="preserve">
<style type="text/css">
	.st0{fill:#FFFFFF;}
	.st1{fill:#636466;}
</style>
<rect x="-118.3" y="389.2" transform="matrix(-0.7073 0.707 -0.707 -0.7073 82.9093 752.1465)" class="st0" width="8.1" height="8.1"/>
<rect x="233.7" y="389.2" transform="matrix(-0.7072 0.707 -0.707 -0.7072 683.8947 503.2608)" class="st0" width="8.1" height="8.1"/>
<g>
	<polygon class="st1" points="-73.2,393.5 -71.1,393.5 -71.1,385.2 -67.8,385.2 -67.8,383.1 -73.2,383.1 	"/>
	<path class="st1" d="M-58.3,395v-12.7c0-1.8-1.1-3.3-2.6-4.1c0.3,0.6,0.5,1.3,0.5,2v12.7c0,1.4-0.6,2.6-1.7,3.5
		c0.9,1,1.7,2.1,1.7,3.7v14.1c0,2.5-2.1,4.6-4.6,4.6h-13.5v2.1h15.6c2.5,0,4.6-2.1,4.6-4.6v-14.1c0-1.6-0.7-2.7-1.7-3.7
		C-58.9,397.7-58.3,396.4-58.3,395z"/>
	<polygon class="st1" points="-73.2,411.3 -71.1,411.3 -71.1,403 -67.8,403 -67.8,400.9 -73.2,400.9 	"/>
</g>
<g>
	<polygon class="st1" points="-40.2,411.3 -38.1,411.3 -38.1,385.2 -34.8,385.2 -34.8,383.1 -40.2,383.1 	"/>
	<path class="st1" d="M-27.9,378.3c0.3,0.6,0.5,1.3,0.5,2v34c0,2.5-2.1,4.6-4.6,4.6h-11c-0.7,0-1.4-0.2-2-0.5
		c0.7,1.5,2.3,2.6,4.1,2.6h11.1c2.5,0,4.6-2.1,4.6-4.6v-34C-25.3,380.5-26.4,379-27.9,378.3z"/>
</g>
<g>
	<polygon class="st1" points="-7.2,393.5 -5.1,393.5 -5.1,385.2 -1.8,385.2 -1.8,383.1 -7.2,383.1 	"/>
	<path class="st1" d="M5.1,402.5c1.6-0.7,2.6-2.3,2.6-4.1v-16.1c0-1.8-1.1-3.4-2.6-4.1c0.3,0.6,0.5,1.3,0.5,2v16.1
		c0,1.7-1,3.3-2.6,4.1l3.1,18.4H0.4l0.4,2.1h7.4L5.1,402.5z"/>
	<polygon class="st1" points="-4.3,400.9 -7.2,400.9 -7.2,418.8 -12.5,418.8 -12.5,420.9 -5.1,420.9 -5.1,403 -4,403 	"/>
</g>
<g>
	<polygon class="st1" points="24.8,411.3 26.9,411.3 26.9,385.2 30.2,385.2 30.2,383.1 24.8,383.1 	"/>
	<path class="st1" d="M37.2,378.3c0.3,0.6,0.5,1.3,0.5,2v34c0,2.5-2.1,4.6-4.6,4.6H22c-0.7,0-1.4-0.2-2-0.5c0.7,1.5,2.3,2.6,4.1,2.6
		h11.1c2.5,0,4.6-2.1,4.6-4.6v-34C39.7,380.5,38.7,379,37.2,378.3z"/>
</g>
<g>
	<polygon class="st1" points="57.9,411.3 59.9,411.3 59.9,385.2 63.2,385.2 63.2,383.1 57.9,383.1 	"/>
	<path class="st1" d="M70.2,378.3c0.3,0.6,0.5,1.3,0.5,2v34c0,2.5-2.1,4.6-4.6,4.6H52.5v2.1h15.6c2.5,0,4.6-2.1,4.6-4.6v-34
		C72.8,380.5,71.7,379,70.2,378.3z"/>
</g>
<polygon class="st1" points="91.2,377.8 91.2,418.8 85.9,418.8 85.9,420.9 93.3,420.9 93.3,377.8 "/>
<g>
	<polygon class="st1" points="124.1,377.8 124.1,418.8 118.2,418.8 118.8,420.9 126.2,420.9 126.2,377.8 	"/>
	<polygon class="st1" points="111.3,399.9 111.3,418.8 106,418.8 106,420.9 113.4,420.9 113.4,407.2 	"/>
</g>
<g>
	<path class="st1" d="M143.6,403h6.1v-2.1h-8.2c-0.7,0-1.4-0.2-2-0.5C140.2,401.9,141.8,403,143.6,403z"/>
	<polygon class="st1" points="146.4,405.7 144.3,406.2 144.3,411.3 146.4,411.3 	"/>
	<path class="st1" d="M156.7,378.3c0.3,0.6,0.5,1.3,0.5,2v8.7l-5.4,1.2v2.6l7.5-1.7v-8.7C159.2,380.5,158.2,379,156.7,378.3z"/>
	<path class="st1" d="M156.7,396.1c0.3,0.6,0.5,1.3,0.5,2v16.2c0,2.5-2.1,4.6-4.6,4.6h-11.1c-0.7,0-1.4-0.2-2-0.5
		c0.7,1.5,2.3,2.6,4.1,2.6h11.1c2.5,0,4.6-2.1,4.6-4.6v-16.3C159.2,398.3,158.2,396.8,156.7,396.1z"/>
	<polygon class="st1" points="144.3,383.1 144.3,393.5 146.4,393.5 146.4,385.2 149.7,385.2 149.7,383.1 	"/>
</g>
<g>
	<polygon class="st1" points="178,400.9 177.3,400.9 177.3,418.8 172,418.8 172,420.9 179.4,420.9 179.4,405.4 	"/>
	<polygon class="st1" points="193.2,377.8 190.4,377.8 184.2,397.2 191.1,418.8 185.1,418.8 185.6,420.6 185.7,420.9 193.2,420.9 
		186.3,399.3 	"/>
</g>
<polygon class="st1" points="210.5,377.8 210.5,418.8 205.2,418.8 205.2,420.9 212.6,420.9 212.6,377.8 "/>
<rect x="241.6" y="399.7" transform="matrix(0.707 -0.7072 0.7072 0.707 -211.7472 291.2552)" class="st1" width="8.1" height="2.9"/>
<rect x="-110.5" y="399.7" transform="matrix(0.7071 -0.7071 0.7071 0.7071 -314.7953 42.2339)" class="st1" width="8.1" height="2.9"/>
<g>
	<path class="st0" d="M-64.4,389c0,1.4-0.6,2.6-1.7,3.5c0.9,1,1.7,2.1,1.7,3.7v14.1c0,2.5-2.1,4.6-4.6,4.6h-15.6v-43.2H-69
		c2.5,0,4.6,2,4.6,4.6V389L-64.4,389z M-71.8,379.1h-5.4v10.4h5.4V379.1z M-71.8,396.9h-5.4v10.5h5.4V396.9z"/>
	<path class="st0" d="M-35.9,371.7c2.5,0,4.6,2,4.6,4.6v34c0,2.5-2.1,4.6-4.6,4.6H-47c-2.5,0-4.6-2.1-4.6-4.6v-34
		c0-2.5,2-4.6,4.6-4.6C-47,371.7-35.9,371.7-35.9,371.7z M-38.8,379.1h-5.4v28.3h5.4V379.1z"/>
	<path class="st0" d="M-5.3,414.8l-3-17.9h-2.8v17.9h-7.4v-43.1h15.6c2.5,0,4.5,2,4.5,4.6v16.1c0,1.7-1,3.3-2.6,4.1l3.1,18.4h-7.4
		V414.8z M-5.8,379.1h-5.4v10.4h5.4V379.1z"/>
	<path class="st0" d="M29.1,371.7c2.5,0,4.6,2,4.6,4.6v34c0,2.5-2.1,4.6-4.6,4.6H18c-2.5,0-4.6-2.1-4.6-4.6v-34c0-2.5,2-4.6,4.6-4.6
		C18,371.7,29.1,371.7,29.1,371.7z M26.2,379.1h-5.4v28.3h5.4V379.1z"/>
	<path class="st0" d="M62.2,371.7c2.5,0,4.6,2,4.6,4.6v34c0,2.5-2.1,4.6-4.6,4.6H46.6v-43.2H62.2z M59.3,379.1h-5.4v28.3h5.4V379.1z
		"/>
	<path class="st0" d="M79.9,371.7h7.4v43.1h-7.4V371.7z"/>
	<path class="st0" d="M120.2,371.7v43.1h-7.4l-5.4-18.8v18.8H100v-43.1h7.3l5.4,17.7v-17.7H120.2z"/>
	<path class="st0" d="M148.6,389.5c2.5,0,4.6,2,4.6,4.6v16.2c0,2.5-2.1,4.6-4.6,4.6h-11.1c-2.5,0-4.6-2.1-4.6-4.6v-8.9l7.4-1.7v7.7
		h5.4v-10.5h-8.2c-2.5,0-4.6-2-4.6-4.6v-16c0-2.5,2-4.6,4.6-4.6h11.1c2.5,0,4.6,2,4.6,4.6v8.7l-7.5,1.7v-7.6h-5.4v10.4H148.6z"/>
	<path class="st0" d="M180.2,393.2l6.9,21.6h-7.5l-0.1-0.2l-5.5-17.7h-0.7v17.9H166v-43.1h7.4v17.8h0.6l5.7-17.8h7.5L180.2,393.2z"
		/>
	<path class="st0" d="M199.2,371.7h7.4v43.1h-7.4V371.7z"/>
</g>
</svg>
