<?xml version="1.0" encoding="utf-8"?>
<!-- Generator: Adobe Illustrator 19.0.0, SVG Export Plug-In . SVG Version: 6.00 Build 0)  -->
<svg version="1.1" id="Layer_1" xmlns="http://www.w3.org/2000/svg" xmlns:xlink="http://www.w3.org/1999/xlink" x="0px" y="0px"
	 viewBox="-120 320 369.5 101" style="enable-background:new -120 320 369.5 101;" xml:space="preserve">
<style type="text/css">
	.st0{fill:#FFFFFF;}
	.st1{fill:#636466;}
</style>
<g>
	<path class="st0" d="M-0.1,331.4C7,329,7.6,320,0.5,320c-1.9,0-4.3,1.4-5.9,4.2l-9.6,16.5c-0.4,0.8-0.9,1.4-1.4,2
		c-2.5-3.4-1.7-8.5,1.7-10.7l-1.4-1.8c-7.5,4.8-5.3,18.5,7.2,18.5C1.8,348.7,6.7,336-0.1,331.4z M-8.9,346c-2.1,0-3.8-0.5-5.1-1.2
		c0.6-0.7,1.2-1.6,1.8-2.5l6-10.4l1,0.1C3,333.7-0.3,346-8.9,346z M-5.1,329.8l2.9-4.9c2.6-4.5,5.9-1.8,4.1,1.5
		C0.5,328.9-1.5,329.7-5.1,329.8z"/>
	<path class="st0" d="M139.2,339l-0.2,0.3c-2,2.3-4.3,4.2-6.5,5c0.6-0.9,1-1.9,1.5-2.7l3.9-6.7c3.3-5.6-2.1-7.5-5.7-4.3l0.7-1.2
		h-3.6l-5.6,9.7l0,0l-0.2,0.3c-1.6,1.7-3.6,2.6-5.4,2.6l3.4-5.8c2.2-3.7,0.2-7.3-3.2-7.3c-2.7,0-4.9,1.1-6.9,4.7l-1.7,3l-1.5,2.5
		l-0.2,0.2c-2.6,3-5.1,5.3-6.6,5.3c-0.8,0-1.2-0.5-0.4-1.9l5.1-9c1.5-2.7,0.1-4.7-1.9-4.7c-1.5,0-3.2,0.9-5,2.7l5.7-9.9h-3.6
		L91.4,339l-0.2,0.2c-1.3,1.5-2.9,2.9-4.3,3.9c1.1-3.4,0.9-8.6,3.1-13.1l-2.7-1.4c-1.5,2-4.7,6.7-7.9,10.4l0,0l0,0l-0.2,0.3
		c-2.6,3-5.1,5.3-6.6,5.3c-0.8,0-1.2-0.5-0.4-1.9l3.6-6.2c1.2-2.2,0.6-3.4-0.5-4.8l-2-2.4c-0.5-0.7-0.5-1.4,0.2-2.1l-1.8-2
		c-2,1.8-2.2,3.8-0.9,5.5L71,331c-1.6,2.2-3.7,5.2-6,8l-0.2,0.3c-2.6,3-5.9,5.3-8.3,5.3c-2.2,0-3.5-1.4-1.8-4.2l0.3-0.6
		c2.3,1,6.6,0.5,9.3-4.1l0.5-0.9c1.9-3.3,0.1-5.7-2.8-5.7c-2.9,0-5.2,1.5-6.7,4.1l-3.4,5.9l-0.2,0.2c-1.6,1.8-3.6,2.6-5.4,2.6
		l3.4-5.8c0.9-1.6,1.3-2.9,1.3-4.1c0-1.8-1.2-3.2-3.2-3.2c-0.9,0-1.6,0.3-2.3,0.8l4.5-7.8h-3.6l-10,17.2l-0.2,0.2
		c-2.6,3-5.1,5.3-6.6,5.3c-0.8,0-1.2-0.5-0.4-1.9l3.6-6.2c1.2-2.2,0.6-3.4-0.5-4.8l-2-2.4c-0.5-0.7-0.5-1.4,0.2-2.1l-1.8-2
		c-2,1.8-2.2,3.8-0.9,5.5l0.3,0.4c-1.6,2.2-3.7,5.2-6,8l-0.2,0.3c-2.6,3-5.1,5.3-6.6,5.3c-0.8,0-1.2-0.5-0.4-1.9l5.7-10.1h-2
		c0.1-1.5-1.4-3.6-3.7-3.6c-1.9,0-4.6,1.5-6.1,4.1l-5,8.6c-1.5,2.6-0.4,5.1,2.4,5.1c1.4,0,3.2-0.9,4.9-2.3c0.2,1.4,1.3,2.3,3.1,2.3
		c2.9,0,6.3-3.1,9.3-6.6l0,0c1.7-2,3-3.8,5.9-7.6l0.5,0.6c0.4,0.6,0.6,1.3,0.2,2l-3.8,6.5c-1.5,2.6-0.4,5.1,2.4,5.1
		c2.1,0,4.3-1.5,6.5-3.7l0,0c0,2.4,1.8,3.8,4.1,3.8c2,0,4.3-1,6.1-3.3c0.3,0,0.5,0,0.8,0c1.3,0,3.1-0.5,4.7-1.4
		c-0.2,2.6,1.7,4.5,4.8,4.5c4,0,8-3.1,11-6.6c1.7-2,3-3.8,5.9-7.6l0.5,0.6c0.4,0.6,0.6,1.3,0.2,2l-3.8,6.5c-1.5,2.6-0.4,5.1,2.4,5.1
		c2.9,0,6.3-3.1,9.3-6.6l0,0l0,0c2-2.3,3.8-4.8,5.1-6.5c-1.4,3.7-0.6,10.3-4,10.3c-1.2,0-1.7-1.3-1.7-1.3l-2.2,1.2
		c0,0,0.6,2.9,3.9,2.9c0.3,0,0.6,0,1-0.1h0.1c1.9-0.2,3.7-1.1,5.5-2.4l-1.2,2.1h3.6l5.4-9.4c5.5-6.9,7.9-6,6.4-3.4l-4.6,8
		c-1.5,2.6-0.4,5.1,2.4,5.1c2.1,0,4.4-1.6,6.6-3.7c0,4.5,6.3,5.4,10.1,0.6h0.8c1.1,0,2.5-0.3,3.8-0.9l-6.5,11.2h3.6l10.6-18.5
		c4-5.4,6.5-3.4,5.5-1.8l-5.4,9.3c-0.6,1-1.9,1.3-2.6,0l-2,1c0,0,0.6,2.9,3.9,2.9h0.2c5.2-0.1,8.6-3.2,11.5-6.6
		C140.3,339.6,139.7,339.1,139.2,339z M58.2,334c2.1-3.5,5.7-2.9,3.6,0.8l-0.5,0.9c-1.7,2.9-4,2.8-5.3,2.4L58.2,334z M12.6,339.6
		c-2.2,3.4-4.3,5-5.7,5c-0.8,0-1.2-0.5-0.4-1.9l5-8.7c1.9-3.3,5.7-2.5,4,0.8L12.6,339.6z M39.4,344.4c-0.8,0-1.4-0.5-1.4-1.4
		c0-0.5,0.2-1.1,0.6-1.8l1.3-2.2c0.3,1.5,1,2.9,2.3,3.7C41.4,343.9,40.3,344.4,39.4,344.4z M43.1,341c-0.9-0.7-1.5-1.8-1.5-3.2
		c0-2.5,2.5-6.7,4.5-6.7c0.8,0,1.3,0.6,1.3,1.5c0,0.6-0.2,1.3-0.7,2.1L43.1,341z M116.2,339.2H116c-1.2,0-2.1,1-2.1,2.1
		c0,0.4,0.1,0.9,0.3,1.2v0.1c-1.7,2.9-5.7,2.3-3.6-1.4l2.7-4.7l1.7-2.9c2.5-4.2,5.9-2.6,3.8,1.1L116.2,339.2z"/>
</g>
<rect x="-118.3" y="389.2" transform="matrix(-0.7073 0.707 -0.707 -0.7073 82.9093 752.1465)" class="st0" width="8.1" height="8.1"/>
<rect x="233.7" y="389.2" transform="matrix(-0.7072 0.707 -0.707 -0.7072 683.8947 503.2608)" class="st0" width="8.1" height="8.1"/>
<g>
	<polygon class="st1" points="-73.2,393.5 -71.1,393.5 -71.1,385.2 -67.8,385.2 -67.8,383.1 -73.2,383.1 	"/>
	<path class="st1" d="M-58.3,395v-12.7c0-1.8-1.1-3.3-2.6-4.1c0.3,0.6,0.5,1.3,0.5,2v12.7c0,1.4-0.6,2.6-1.7,3.5
		c0.9,1,1.7,2.1,1.7,3.7v14.1c0,2.5-2.1,4.6-4.6,4.6h-13.5v2.1h15.6c2.5,0,4.6-2.1,4.6-4.6v-14.1c0-1.6-0.7-2.7-1.7-3.7
		C-58.9,397.7-58.3,396.4-58.3,395z"/>
	<polygon class="st1" points="-73.2,411.3 -71.1,411.3 -71.1,403 -67.8,403 -67.8,400.9 -73.2,400.9 	"/>
</g>
<g>
	<polygon class="st1" points="-40.2,411.3 -38.1,411.3 -38.1,385.2 -34.8,385.2 -34.8,383.1 -40.2,383.1 	"/>
	<path class="st1" d="M-27.9,378.3c0.3,0.6,0.5,1.3,0.5,2v34c0,2.5-2.1,4.6-4.6,4.6h-11c-0.7,0-1.4-0.2-2-0.5
		c0.7,1.5,2.3,2.6,4.1,2.6h11.1c2.5,0,4.6-2.1,4.6-4.6v-34C-25.3,380.5-26.4,379-27.9,378.3z"/>
</g>
<g>
	<polygon class="st1" points="-7.2,393.5 -5.1,393.5 -5.1,385.2 -1.8,385.2 -1.8,383.1 -7.2,383.1 	"/>
	<path class="st1" d="M5.1,402.5c1.6-0.7,2.6-2.3,2.6-4.1v-16.1c0-1.8-1.1-3.4-2.6-4.1c0.3,0.6,0.5,1.3,0.5,2v16.1
		c0,1.7-1,3.3-2.6,4.1l3.1,18.4H0.4l0.4,2.1h7.4L5.1,402.5z"/>
	<polygon class="st1" points="-4.3,400.9 -7.2,400.9 -7.2,418.8 -12.5,418.8 -12.5,420.9 -5.1,420.9 -5.1,403 -4,403 	"/>
</g>
<g>
	<polygon class="st1" points="24.8,411.3 26.9,411.3 26.9,385.2 30.2,385.2 30.2,383.1 24.8,383.1 	"/>
	<path class="st1" d="M37.2,378.3c0.3,0.6,0.5,1.3,0.5,2v34c0,2.5-2.1,4.6-4.6,4.6H22c-0.7,0-1.4-0.2-2-0.5c0.7,1.5,2.3,2.6,4.1,2.6
		h11.1c2.5,0,4.6-2.1,4.6-4.6v-34C39.7,380.5,38.7,379,37.2,378.3z"/>
</g>
<g>
	<polygon class="st1" points="57.9,411.3 59.9,411.3 59.9,385.2 63.2,385.2 63.2,383.1 57.9,383.1 	"/>
	<path class="st1" d="M70.2,378.3c0.3,0.6,0.5,1.3,0.5,2v34c0,2.5-2.1,4.6-4.6,4.6H52.5v2.1h15.6c2.5,0,4.6-2.1,4.6-4.6v-34
		C72.8,380.5,71.7,379,70.2,378.3z"/>
</g>
<polygon class="st1" points="91.2,377.8 91.2,418.8 85.9,418.8 85.9,420.9 93.3,420.9 93.3,377.8 "/>
<g>
	<polygon class="st1" points="124.1,377.8 124.1,418.8 118.2,418.8 118.8,420.9 126.2,420.9 126.2,377.8 	"/>
	<polygon class="st1" points="111.3,399.9 111.3,418.8 106,418.8 106,420.9 113.4,420.9 113.4,407.2 	"/>
</g>
<g>
	<path class="st1" d="M143.6,403h6.1v-2.1h-8.2c-0.7,0-1.4-0.2-2-0.5C140.2,401.9,141.8,403,143.6,403z"/>
	<polygon class="st1" points="146.4,405.7 144.3,406.2 144.3,411.3 146.4,411.3 	"/>
	<path class="st1" d="M156.7,378.3c0.3,0.6,0.5,1.3,0.5,2v8.7l-5.4,1.2v2.6l7.5-1.7v-8.7C159.2,380.5,158.2,379,156.7,378.3z"/>
	<path class="st1" d="M156.7,396.1c0.3,0.6,0.5,1.3,0.5,2v16.2c0,2.5-2.1,4.6-4.6,4.6h-11.1c-0.7,0-1.4-0.2-2-0.5
		c0.7,1.5,2.3,2.6,4.1,2.6h11.1c2.5,0,4.6-2.1,4.6-4.6v-16.3C159.2,398.3,158.2,396.8,156.7,396.1z"/>
	<polygon class="st1" points="144.3,383.1 144.3,393.5 146.4,393.5 146.4,385.2 149.7,385.2 149.7,383.1 	"/>
</g>
<g>
	<polygon class="st1" points="178,400.9 177.3,400.9 177.3,418.8 172,418.8 172,420.9 179.4,420.9 179.4,405.4 	"/>
	<polygon class="st1" points="193.2,377.8 190.4,377.8 184.2,397.2 191.1,418.8 185.1,418.8 185.6,420.6 185.7,420.9 193.2,420.9 
		186.3,399.3 	"/>
</g>
<polygon class="st1" points="210.5,377.8 210.5,418.8 205.2,418.8 205.2,420.9 212.6,420.9 212.6,377.8 "/>
<rect x="241.6" y="399.7" transform="matrix(0.707 -0.7072 0.7072 0.707 -211.7472 291.2552)" class="st1" width="8.1" height="2.9"/>
<rect x="-110.5" y="399.7" transform="matrix(0.7071 -0.7071 0.7071 0.7071 -314.7953 42.2339)" class="st1" width="8.1" height="2.9"/>
<g>
	<path class="st0" d="M-64.4,389c0,1.4-0.6,2.6-1.7,3.5c0.9,1,1.7,2.1,1.7,3.7v14.1c0,2.5-2.1,4.6-4.6,4.6h-15.6v-43.2H-69
		c2.5,0,4.6,2,4.6,4.6V389L-64.4,389z M-71.8,379.1h-5.4v10.4h5.4V379.1z M-71.8,396.9h-5.4v10.5h5.4V396.9z"/>
	<path class="st0" d="M-35.9,371.7c2.5,0,4.6,2,4.6,4.6v34c0,2.5-2.1,4.6-4.6,4.6H-47c-2.5,0-4.6-2.1-4.6-4.6v-34
		c0-2.5,2-4.6,4.6-4.6C-47,371.7-35.9,371.7-35.9,371.7z M-38.8,379.1h-5.4v28.3h5.4V379.1z"/>
	<path class="st0" d="M-5.3,414.8l-3-17.9h-2.8v17.9h-7.4v-43.1h15.6c2.5,0,4.5,2,4.5,4.6v16.1c0,1.7-1,3.3-2.6,4.1l3.1,18.4h-7.4
		V414.8z M-5.8,379.1h-5.4v10.4h5.4V379.1z"/>
	<path class="st0" d="M29.1,371.7c2.5,0,4.6,2,4.6,4.6v34c0,2.5-2.1,4.6-4.6,4.6H18c-2.5,0-4.6-2.1-4.6-4.6v-34c0-2.5,2-4.6,4.6-4.6
		C18,371.7,29.1,371.7,29.1,371.7z M26.2,379.1h-5.4v28.3h5.4V379.1z"/>
	<path class="st0" d="M62.2,371.7c2.5,0,4.6,2,4.6,4.6v34c0,2.5-2.1,4.6-4.6,4.6H46.6v-43.2H62.2z M59.3,379.1h-5.4v28.3h5.4V379.1z
		"/>
	<path class="st0" d="M79.9,371.7h7.4v43.1h-7.4V371.7z"/>
	<path class="st0" d="M120.2,371.7v43.1h-7.4l-5.4-18.8v18.8H100v-43.1h7.3l5.4,17.7v-17.7H120.2z"/>
	<path class="st0" d="M148.6,389.5c2.5,0,4.6,2,4.6,4.6v16.2c0,2.5-2.1,4.6-4.6,4.6h-11.1c-2.5,0-4.6-2.1-4.6-4.6v-8.9l7.4-1.7v7.7
		h5.4v-10.5h-8.2c-2.5,0-4.6-2-4.6-4.6v-16c0-2.5,2-4.6,4.6-4.6h11.1c2.5,0,4.6,2,4.6,4.6v8.7l-7.5,1.7v-7.6h-5.4v10.4H148.6z"/>
	<path class="st0" d="M180.2,393.2l6.9,21.6h-7.5l-0.1-0.2l-5.5-17.7h-0.7v17.9H166v-43.1h7.4v17.8h0.6l5.7-17.8h7.5L180.2,393.2z"
		/>
	<path class="st0" d="M199.2,371.7h7.4v43.1h-7.4V371.7z"/>
</g>
</svg>
