<svg xmlns="http://www.w3.org/2000/svg"><defs> <style> .cls-1 { fill: #d1d1d1; fill-rule: evenodd; filter: url(#filter); } </style> <filter id="icon-user-filter" x="266.031" y="279" width="14.969" height="15" filterUnits="userSpaceOnUse"> <feFlood result="flood"/> <feComposite result="composite" operator="in" in2="SourceGraphic"/> <feBlend result="blend" in2="SourceGraphic"/> </filter> </defs><symbol viewBox="0 0 51.5 49.5" id="icon-beard-type1"><path fill="#826550" d="M76.6,24.8H76.4c-2.3,7.7-2.9,17.1-9.4,20.6-1.2-3.4-4.1-4.9-7.4-6.4s-4.5-2.6-6.6-2.6a2.2,2.2,0,0,0-1.5.3,2.2,2.2,0,0,0-1.5-.3c-2.1.1-4.5,1.7-6.6,2.6s-6.2,3-7.4,6.4c-6.4-3.6-7.1-12.9-9.4-20.6H26.4a14.5,14.5,0,0,0-.6,2.4c0,1.9.5,21.5,1.9,28.4s6.1,10.8,10.8,13.8,8.5,4.8,13,4.8,9.7-2.8,13-4.8,9.6-7.5,10.8-13.8,1.9-26.5,1.9-28.4A14.5,14.5,0,0,0,76.6,24.8ZM62.7,52.8c-0.2,1.6-1.7,3.4-3.4,3.5s-4.5-4.4-7.9-4.4-4.9,4.5-7.9,4.4-3.1-1.9-3.4-3.5a7.6,7.6,0,0,1,1.7-5.6c1.1-1.1,2.8-.9,4.7-1.2a8.6,8.6,0,0,0,4.9-1.9h0A8.6,8.6,0,0,0,56.3,46c1.9,0.3,3.6.1,4.7,1.2A7.6,7.6,0,0,1,62.7,52.8Z" transform="translate(-25.8 -24.8)"/></symbol><symbol viewBox="0 0 57.7 68.6" id="icon-beard-type2"><path fill="#826550" d="M80.4,56.5c0.1-1.7.5-3.5,0.7-5.4,0.7-5.4,1.6-11.7-.1-16.8H80.8c-1.3,3.7-1.3,8.3-2.2,12.4a19.7,19.7,0,0,1-3.2,7.6A4.4,4.4,0,0,1,73.5,56c-0.7-3.9-4.3-4.9-7.7-6.4s-4-2-6.1-2.2a10.8,10.8,0,0,0-2,.2,10.6,10.6,0,0,0-2-.2c-2.1.1-4,1.3-6.1,2.2s-7,2.4-7.7,6.4A4.4,4.4,0,0,1,40,54.2a19.7,19.7,0,0,1-3.2-7.6c-0.9-4-.8-8.6-2.2-12.4H34.3c-1.7,5.1-.8,11.4-0.1,16.8,0.2,1.9.6,3.7,0.7,5.4,0.8,11.1-7,23.1-6,28.9,0.9,7.5,8.4,9.4,14.2,12.4s8.3,5,13.3,5.2H59c5-.2,9-2.9,13.3-5.2S85.5,93,86.4,85.4C87.4,79.6,79.6,67.6,80.4,56.5ZM57.7,60.3h0a35.9,35.9,0,0,1-7.2-.5c0.7-2.1,4-1.6,7.1-1.6h0.2c3,0,6.4-.5,7.1,1.6A36,36,0,0,1,57.7,60.3Z" transform="translate(-28.8 -34.3)"/></symbol><symbol viewBox="0 0 62.4 78.5" id="icon-beard-type3"><path fill="#826550" d="M93.6,81.2c0-5.2-2.4-7.8-3.6-10a56,56,0,0,1-4.2-17.6c-0.1-4.9-1.7-12.4-2.9-14.4-0.9,0-1.5,7.8-2.3,11.6-1.4,7-3.8,8.9-4.4,9-0.8-2.8-4.1-7.4-13.7-7.7H62.3c-9.6.4-12.9,4.9-13.7,7.7-0.7-.1-3-2-4.4-9-0.8-3.9-1.4-11.6-2.3-11.6-1.2,2-2.8,9.5-2.9,14.4a56.1,56.1,0,0,1-4.2,17.6c-1.2,2.2-3.6,4.7-3.6,10s5.2,7.2,5.6,11.4c0.1,1.2,0,2.3.1,3.4,2,17.5,17.9,21.7,25.4,21.7h0c7.6,0,23.4-4.2,25.4-21.7,0.2-1,0-2.1.1-3.4C88.4,88.4,93.6,85,93.6,81.2ZM64.4,66a20.6,20.6,0,0,0-4.1,0c-1.7.3-5.8,1-5.8-1.1s6.7-2.3,7.8-2.3,7.8,1.2,7.8,2.3S66.2,66.3,64.4,66Z" transform="translate(-31.2 -39.2)"/></symbol><symbol viewBox="0 0 57 97.7" id="icon-beard-type4"><path fill="#826550" d="M79.6,64.1c-0.4-5.5-.6-10.9-2.5-15.2-0.8,0-1.5,7.3-2.3,10.9-1.5,7.1-3.7,8.3-4.4,8.3-0.9-3.9-4.4-4.2-7.8-5.9A11.1,11.1,0,0,0,59,61a14.6,14.6,0,0,0-2,.1,14.4,14.4,0,0,0-2-.1,11.1,11.1,0,0,0-3.6,1.2c-3.4,1.6-6.9,2-7.8,5.9-0.7,0-3-1.1-4.4-8.3-0.7-3.6-1.5-10.9-2.3-10.9-1.9,4.4-2.1,9.8-2.5,15.2-0.9,23.5-5.9,36.3-5.9,47.2,0,26.1,11.7,35.3,28.5,35.3s28.5-9.2,28.5-35.3C85.5,100.4,80.5,87.6,79.6,64.1ZM62.9,73.8c-2.8,1.2-5.4-.7-5.9-0.7H56.9c-0.5,0-3.1,1.9-5.9.7-0.8-3.6,2.4-4,5.9-3.9S63.7,70.2,62.9,73.8Z" transform="translate(-28.5 -48.8)"/></symbol><symbol viewBox="0 0 44.7 104.8" id="icon-beard-type5"><path fill="#826550" d="M66.3,52.4H66.2c-2.8,21.5-5.4,22.6-7,22.7s-3.6-1.8-4.9-2.5A15.9,15.9,0,0,0,45.2,70a15.9,15.9,0,0,0-9.1,2.5c-1.3.7-3.5,2.6-4.9,2.5s-4.1-1.2-7-22.7H24.2c-2.1,12.2-1.6,50.2,1.2,63.6,2.6,18.5,10.1,35.1,13.4,39.6,0.7,1,3.5,1.6,6.4,1.6s5.7-.5,6.4-1.6c3.3-4.5,10.8-21.1,13.4-39.6C67.9,102.6,68.4,64.6,66.3,52.4ZM45.2,80.5a100.2,100.2,0,0,0-10.1.5c1.1-1.8,9-3.2,10.1-3.4s9,1.7,10.1,3.4A100.2,100.2,0,0,0,45.2,80.5Z" transform="translate(-22.9 -52.4)"/></symbol><symbol viewBox="0 0 22.1 21.2" id="icon-beard"><path fill="#826550" d="M21.8,0H21.7c-1,3.3-1.3,7.3-4,8.8-0.5-1.4-1.8-2.1-3.2-2.7A9.5,9.5,0,0,0,11.7,5a0.9,0.9,0,0,0-.6.1A0.9,0.9,0,0,0,10.4,5,9.5,9.5,0,0,0,7.6,6.1c-1.4.6-2.7,1.3-3.2,2.7C1.6,7.3,1.3,3.3.4,0H0.3A6.3,6.3,0,0,0,0,1,110.5,110.5,0,0,0,.8,13.2c0.5,2.7,2.6,4.6,4.6,5.9s3.6,2.1,5.6,2.1,4.2-1.2,5.6-2.1,4.1-3.2,4.6-5.9A110.3,110.3,0,0,0,22.1,1,6.1,6.1,0,0,0,21.8,0Zm-6,12a1.8,1.8,0,0,1-1.4,1.5c-1.3.1-1.9-1.9-3.4-1.9s-2.1,1.9-3.4,1.9A1.8,1.8,0,0,1,6.2,12a3.2,3.2,0,0,1,.7-2.4,3.5,3.5,0,0,1,2-.5A3.7,3.7,0,0,0,11,8.3h0a3.7,3.7,0,0,0,2.1.8,3.5,3.5,0,0,1,2,.5A3.2,3.2,0,0,1,15.8,12Z"/></symbol><symbol viewBox="0 0 141.7 139.5" id="icon-clock"> <style type="text/css"> .st0{fill:#FFFFFF;} </style> <g> <path class="st0" d="M71.8,21.5V1c0-0.6-0.4-1-1-1c-0.6,0-1,0.4-1,1v20.5c0.3,0,0.7,0,1,0C71.2,21.4,71.5,21.5,71.8,21.5z"/> <path class="st0" d="M45.8,28.4c0.6-0.3,1.1-0.7,1.7-1L37.3,9.7c-0.3-0.5-0.9-0.6-1.4-0.4c-0.5,0.3-0.6,0.9-0.4,1.4L45.8,28.4z"/> <path class="st0" d="M10.5,34.7c-0.3,0.5-0.1,1.1,0.4,1.4l17.7,10.3c0.3-0.6,0.7-1.2,1-1.7L11.9,34.4
		C11.4,34.1,10.8,34.2,10.5,34.7z"/> <path class="st0" d="M106.4,8.5c-0.5-0.3-1.1-0.1-1.4,0.4L94.2,27.5c0.6,0.3,1.2,0.7,1.7,1l10.8-18.6
		C107.1,9.4,106.9,8.8,106.4,8.5z"/> <path class="st0" d="M131.8,35.7c0.5-0.3,0.6-0.9,0.4-1.4c-0.3-0.5-0.9-0.6-1.4-0.4l-18.6,10.8c0.3,0.6,0.7,1.1,1,1.7L131.8,35.7z"/> <path class="st0" d="M22.5,69.8c0-0.3,0-0.7,0-1H1c-0.6,0-1,0.4-1,1c0,0.6,0.4,1,1,1h21.5C22.5,70.4,22.5,70.1,22.5,69.8z"/> <path class="st0" d="M140.7,68.8h-21.5c0,0.3,0,0.7,0,1s0,0.7,0,1h21.5c0.6,0,1-0.4,1-1C141.7,69.2,141.2,68.8,140.7,68.8z"/> <path class="st0" d="M130.8,103.4l-17.7-10.3c-0.3,0.6-0.7,1.2-1,1.7l17.7,10.3c0.2,0.1,0.3,0.1,0.5,0.1c0.3,0,0.7-0.2,0.9-0.5
		C131.4,104.3,131.3,103.7,130.8,103.4z"/> <path class="st0" d="M9.9,103.9c-0.5,0.3-0.6,0.9-0.4,1.4c0.2,0.3,0.5,0.5,0.9,0.5c0.2,0,0.3,0,0.5-0.1l18.6-10.8
		c-0.3-0.6-0.7-1.1-1-1.7L9.9,103.9z"/> <path class="st0" d="M95.9,111.1c-0.6,0.3-1.1,0.7-1.7,1l10.2,17.7c0.2,0.3,0.5,0.5,0.9,0.5c0.2,0,0.3,0,0.5-0.1
		c0.5-0.3,0.6-0.9,0.4-1.4L95.9,111.1z"/> <path class="st0" d="M34.9,129.7c-0.3,0.5-0.1,1.1,0.4,1.4c0.2,0.1,0.3,0.1,0.5,0.1c0.3,0,0.7-0.2,0.9-0.5l10.8-18.6
		c-0.6-0.3-1.2-0.7-1.7-1L34.9,129.7z"/> <path class="st0" d="M69.8,118.1v20.5c0,0.6,0.4,1,1,1c0.6,0,1-0.4,1-1v-20.5c-0.3,0-0.7,0-1,0C70.5,118.1,70.2,118.1,69.8,118.1z"/> <path class="st0" d="M104.7,51.9c0.7-0.4,1-1.3,0.5-2c-0.4-0.7-1.3-1-2-0.5L74.8,65.7l0,0c-1-1-2.4-1.6-4-1.6c-1.5,0-2.9,0.6-4,1.6
		L46.5,53.9c-0.7-0.4-1.6-0.2-2.1,0.5c-0.4,0.7-0.2,1.6,0.5,2.1l20.3,11.8c-0.1,0.5-0.2,0.9-0.2,1.4c0,3.1,2.5,5.7,5.7,5.7
		c3.1,0,5.7-2.5,5.7-5.7c0-0.5-0.1-1-0.2-1.4L104.7,51.9z M75.3,66.3C75.3,66.3,75.3,66.3,75.3,66.3C75.3,66.3,75.3,66.3,75.3,66.3z
		 M75.7,66.9C75.7,66.9,75.7,66.9,75.7,66.9C75.7,66.9,75.7,66.9,75.7,66.9z M66,66.9C65.9,66.9,65.9,66.9,66,66.9
		C65.9,66.9,65.9,66.9,66,66.9z M66.4,66.3C66.4,66.3,66.3,66.3,66.4,66.3C66.3,66.3,66.4,66.3,66.4,66.3z M70.8,72.4
		c-1.5,0-2.7-1.2-2.7-2.7s1.2-2.7,2.7-2.7c1.5,0,2.7,1.2,2.7,2.7S72.3,72.4,70.8,72.4z"/> </g> </symbol><symbol viewBox="0 0 10.15 21.74" id="icon-fb"><path d="M3.34 1.12A4.77 4.77 0 0 1 6.53 0h3.61v3.81H7.81a1.07 1.07 0 0 0-1.09.83v2.55h3.42c-.08 1.23-.24 2.45-.41 3.67h-3v10.87H2.21V10.86H0V7.21h2.19V3.66a3.83 3.83 0 0 1 1.15-2.54z" fill="#fff"/></symbol><symbol viewBox="0 0 20 20" id="icon-inst"><path d="M18 0H2a2 2 0 0 0-2 2v16a2 2 0 0 0 2 2h16a2 2 0 0 0 2-2V2a2 2 0 0 0-2-2zm-8 6a4 4 0 1 1-4 4 4 4 0 0 1 4-4zM2.5 18a.47.47 0 0 1-.5-.5V9h2.1a3.4 3.4 0 0 0-.1 1 6 6 0 1 0 12 0 3.4 3.4 0 0 0-.1-1H18v8.5a.47.47 0 0 1-.5.5zM18 4.5a.47.47 0 0 1-.5.5h-2a.47.47 0 0 1-.5-.5v-2a.47.47 0 0 1 .5-.5h2a.47.47 0 0 1 .5.5z" fill="#fff"/></symbol><symbol viewBox="0 0 45 12.9" id="icon-mustache"><path fill="#826550" d="M22.5,8.2a10.5,10.5,0,0,0,8.8,4.7C38.4,13.2,45,7.7,45,5.6,42.2,8.1,37.6,8.3,35,7.3S31.9,2.8,29.2.9a5.1,5.1,0,0,0-5.7,0l-1,.8-1-.8a5.1,5.1,0,0,0-5.7,0c-2.8,2-2.1,4.9-5.9,6.4S2.8,8.1,0,5.6c0,2.1,6.5,7.6,13.7,7.3a10.5,10.5,0,0,0,8.8-4.7h0Z" transform="translate(0 0)"/></symbol><symbol viewBox="0 0 21 20" id="icon-scissors"><path d="M8 4a4 4 0 1 0-4 4 2.9 2.9 0 0 0 1.6-.4L8 10l-2.4 2.4A2.9 2.9 0 0 0 4 12a4 4 0 1 0 4 4 2.9 2.9 0 0 0-.4-1.6L10 12l7 7h4L7.6 5.6A2.9 2.9 0 0 0 8 4zM4 6a2 2 0 1 1 2-2 2 2 0 0 1-2 2zm0 12a2 2 0 1 1 2-2 2 2 0 0 1-2 2zm6-8.5a.5.5 0 1 1-.5.5.5.5 0 0 1 .5-.5zM21 1h-4l-6 6 2 2 8-8z" fill="#826550"/></symbol><symbol viewBox="0 0 14.969 15" id="icon-user">  <path id="icon-user-User_copy_2" data-name="User copy 2" class="cls-1" d="M272.868,279.227a1.577,1.577,0,0,0-.721.269,1.75,1.75,0,0,0-.786.046,1.83,1.83,0,0,0-1.18,1.619c-0.04.394-.05,1.5-0.023,2.1,0.08,0.356-.2.356-0.2,0.356-0.5-.033-0.278,1.516-0.278,1.516a0.814,0.814,0,0,0,.722.866,3.173,3.173,0,0,0,1.286,1.526s0,0.616.018,1.072c-0.076-.037.26,1.165-2.062,1.5s-2.766,1.077-3.2,1.489-0.421,2.41-.421,2.41L281,294s-0.112-2-.549-2.417-0.915-1.152-3.236-1.489c-2.257-.321-1.886-1.507-1.9-1.578,0-.179.028-0.941,0.028-0.941a3.91,3.91,0,0,0,1.145-1.61,1.322,1.322,0,0,0,.866-0.8s0.165-1.564-.364-1.556c0,0-.251.08-0.171-0.275a9.608,9.608,0,0,0,.014-1.86c-0.041-.395.02-1.523-0.822-1.681a5.162,5.162,0,0,0-.931-0.041c-0.281-.039-0.615-0.755-1.137-0.755Z" transform="translate(-266.031 -279)"/> </symbol><symbol viewBox="0 0 26.14 14.91" id="icon-vk"><path d="M26 13.47l-.09-.17a13.55 13.55 0 0 0-2.6-3q-.87-.83-1.1-1.12A1 1 0 0 1 22 8a10.27 10.27 0 0 1 1.22-1.78l.88-1.16q2.35-3.13 2-4L26 .94a.8.8 0 0 0-.4-.22 2.14 2.14 0 0 0-.87 0h-3.92a.51.51 0 0 0-.27 0h-.3a.6.6 0 0 0-.15.14.93.93 0 0 0-.14.24 22.22 22.22 0 0 1-1.46 3.06q-.5.84-.93 1.46a7 7 0 0 1-.71.91 4.94 4.94 0 0 1-.52.47q-.23.18-.35.15l-.23-.05a.9.9 0 0 1-.31-.33 1.49 1.49 0 0 1-.16-.53V1.6a3.14 3.14 0 0 0 0-.62 2.12 2.12 0 0 0-.14-.44.73.73 0 0 0-.28-.33 1.57 1.57 0 0 0-.46-.18A9 9 0 0 0 12.57 0a8.93 8.93 0 0 0-3.25.33 1.83 1.83 0 0 0-.52.41q-.25.3-.07.33a1.67 1.67 0 0 1 1.16.59l.08.16a2.6 2.6 0 0 1 .19.63 6.32 6.32 0 0 1 .12 1 10.59 10.59 0 0 1 0 1.7q-.07.71-.13 1.1a2.21 2.21 0 0 1-.18.64 2.69 2.69 0 0 1-.16.3l-.07.07a1 1 0 0 1-.37.07.86.86 0 0 1-.46-.19 3.27 3.27 0 0 1-.56-.52 7 7 0 0 1-.66-.93q-.37-.6-.76-1.42l-.22-.39q-.2-.38-.56-1.11t-.62-1.43A.9.9 0 0 0 5.2.9h-.07a.93.93 0 0 0-.22-.16A1.44 1.44 0 0 0 4.6.65L.87.68A1 1 0 0 0 .1.94L0 1a.44.44 0 0 0 0 .22 1.08 1.08 0 0 0 .08.37Q.9 3.53 1.86 5.31t1.66 2.87Q4.23 9.27 5 10.24t1 1.24l.37.41.34.33a8.06 8.06 0 0 0 1 .78 16.34 16.34 0 0 0 1.4.9 7.6 7.6 0 0 0 1.79.72 6.19 6.19 0 0 0 2 .22h1.57a1.08 1.08 0 0 0 .72-.3l.05-.07a.9.9 0 0 0 .1-.25 1.38 1.38 0 0 0 0-.37 4.48 4.48 0 0 1 .09-1.05 2.77 2.77 0 0 1 .23-.71 1.74 1.74 0 0 1 .29-.4 1.19 1.19 0 0 1 .23-.2h.11a.86.86 0 0 1 .77.21 4.52 4.52 0 0 1 .83.79q.39.47.93 1.05a6.41 6.41 0 0 0 1 .87l.27.16a3.31 3.31 0 0 0 .71.3 1.53 1.53 0 0 0 .76.07l3.48-.05a1.58 1.58 0 0 0 .8-.17.68.68 0 0 0 .34-.37 1.06 1.06 0 0 0 0-.46 1.71 1.71 0 0 0-.1-.36z" fill="#fff"/></symbol><symbol viewBox="0 0 369.5 153" id="logo-desktop"> <style type="text/css"> .st0{fill:#FFFFFF;} .st1{fill:#636466;} </style> <g> <path class="st0" d="M119.9,11.4C127,9,127.6,0,120.5,0c-1.9,0-4.3,1.4-5.9,4.2L105,20.7c-0.4,0.8-0.9,1.4-1.4,2
		c-2.5-3.4-1.7-8.5,1.7-10.7l-1.4-1.8c-7.5,4.8-5.3,18.5,7.2,18.5C121.8,28.7,126.7,16,119.9,11.4z M111.1,26
		c-2.1,0-3.8-0.5-5.1-1.2c0.6-0.7,1.2-1.6,1.8-2.5l6-10.4l1,0.1C123,13.7,119.7,26,111.1,26z M114.9,9.8l2.9-4.9
		c2.6-4.5,5.9-1.8,4.1,1.5C120.5,8.9,118.5,9.7,114.9,9.8z"/> <path class="st0" d="M259.2,19l-0.2,0.3c-2,2.3-4.3,4.2-6.5,5c0.6-0.9,1-1.9,1.5-2.7l3.9-6.7c3.3-5.6-2.1-7.5-5.7-4.3l0.7-1.2h-3.6
		l-5.6,9.7c0,0,0,0,0,0l-0.2,0.3c-1.6,1.7-3.6,2.6-5.4,2.6l3.4-5.8c2.2-3.7,0.2-7.3-3.2-7.3c-2.7,0-4.9,1.1-6.9,4.7l-1.7,3l-1.5,2.5
		l-0.2,0.2c-2.6,3-5.1,5.3-6.6,5.3c-0.8,0-1.2-0.5-0.4-1.9l5.1-9c1.5-2.7,0.1-4.7-1.9-4.7c-1.5,0-3.2,0.9-5,2.7l5.7-9.9h-3.6
		L211.4,19l-0.2,0.2c-1.3,1.5-2.9,2.9-4.3,3.9c1.1-3.4,0.9-8.6,3.1-13.1l-2.7-1.4c-1.5,2-4.7,6.7-7.9,10.4l0,0l0,0l-0.2,0.3
		c-2.6,3-5.1,5.3-6.6,5.3c-0.8,0-1.2-0.5-0.4-1.9l3.6-6.2c1.2-2.2,0.6-3.4-0.5-4.8l-2-2.4c-0.5-0.7-0.5-1.4,0.2-2.1l-1.8-2
		c-2,1.8-2.2,3.8-0.9,5.5L191,11c-1.6,2.2-3.7,5.2-6,8l-0.2,0.3c-2.6,3-5.9,5.3-8.3,5.3c-2.2,0-3.5-1.4-1.8-4.2l0.3-0.6
		c2.3,1,6.6,0.5,9.3-4.1l0.5-0.9c1.9-3.3,0.1-5.7-2.8-5.7c-2.9,0-5.2,1.5-6.7,4.1l-3.4,5.9l-0.2,0.2c-1.6,1.8-3.6,2.6-5.4,2.6
		l3.4-5.8c0.9-1.6,1.3-2.9,1.3-4.1c0-1.8-1.2-3.2-3.2-3.2c-0.9,0-1.6,0.3-2.3,0.8l4.5-7.8h-3.6l-10,17.2l-0.2,0.2
		c-2.6,3-5.1,5.3-6.6,5.3c-0.8,0-1.2-0.5-0.4-1.9l3.6-6.2c1.2-2.2,0.6-3.4-0.5-4.8l-2-2.4c-0.5-0.7-0.5-1.4,0.2-2.1l-1.8-2
		c-2,1.8-2.2,3.8-0.9,5.5l0.3,0.4c-1.6,2.2-3.7,5.2-6,8l-0.2,0.3c-2.6,3-5.1,5.3-6.6,5.3c-0.8,0-1.2-0.5-0.4-1.9l5.7-10.1h-2
		c0.1-1.5-1.4-3.6-3.7-3.6c-1.9,0-4.6,1.5-6.1,4.1l-5,8.6c-1.5,2.6-0.4,5.1,2.4,5.1c1.4,0,3.2-0.9,4.9-2.3c0.2,1.4,1.3,2.3,3.1,2.3
		c2.9,0,6.3-3.1,9.3-6.6l0,0c1.7-2,3-3.8,5.9-7.6l0.5,0.6c0.4,0.6,0.6,1.3,0.2,2l-3.8,6.5c-1.5,2.6-0.4,5.1,2.4,5.1
		c2.1,0,4.3-1.5,6.5-3.7c0,0,0,0,0,0c0,2.4,1.8,3.8,4.1,3.8c2,0,4.3-1,6.1-3.3c0.3,0,0.5,0,0.8,0c1.3,0,3.1-0.5,4.7-1.4
		c-0.2,2.6,1.7,4.5,4.8,4.5c4,0,8-3.1,11-6.6c1.7-2,3-3.8,5.9-7.6l0.5,0.6c0.4,0.6,0.6,1.3,0.2,2l-3.8,6.5c-1.5,2.6-0.4,5.1,2.4,5.1
		c2.9,0,6.3-3.1,9.3-6.6h0h0c2-2.3,3.8-4.8,5.1-6.5c-1.4,3.7-0.6,10.3-4,10.3c-1.2,0-1.7-1.3-1.7-1.3l-2.2,1.2c0,0,0.6,2.9,3.9,2.9
		c0.3,0,0.6,0,1-0.1c0,0,0.1,0,0.1,0c1.9-0.2,3.7-1.1,5.5-2.4l-1.2,2.1h3.6l5.4-9.4c5.5-6.9,7.9-6,6.4-3.4l-4.6,8
		c-1.5,2.6-0.4,5.1,2.4,5.1c2.1,0,4.4-1.6,6.6-3.7c0,4.5,6.3,5.4,10.1,0.6h0.8c1.1,0,2.5-0.3,3.8-0.9l-6.5,11.2h3.6l10.6-18.5
		c4-5.4,6.5-3.4,5.5-1.8l-5.4,9.3c-0.6,1-1.9,1.3-2.6,0l-2,1c0,0,0.6,2.9,3.9,2.9h0.2c5.2-0.1,8.6-3.2,11.5-6.6
		C260.3,19.6,259.7,19.1,259.2,19z M178.2,14c2.1-3.5,5.7-2.9,3.6,0.8l-0.5,0.9c-1.7,2.9-4,2.8-5.3,2.4L178.2,14z M132.6,19.6
		c-2.2,3.4-4.3,5-5.7,5c-0.8,0-1.2-0.5-0.4-1.9l5-8.7c1.9-3.3,5.7-2.5,4,0.8L132.6,19.6z M159.4,24.4c-0.8,0-1.4-0.5-1.4-1.4
		c0-0.5,0.2-1.1,0.6-1.8l1.3-2.2c0.3,1.5,1,2.9,2.3,3.7C161.4,23.9,160.3,24.4,159.4,24.4z M163.1,21c-0.9-0.7-1.5-1.8-1.5-3.2
		c0-2.5,2.5-6.7,4.5-6.7c0.8,0,1.3,0.6,1.3,1.5c0,0.6-0.2,1.3-0.7,2.1L163.1,21z M236.2,19.2H236c-1.2,0-2.1,1-2.1,2.1
		c0,0.4,0.1,0.9,0.3,1.2l0,0.1c-1.7,2.9-5.7,2.3-3.6-1.4l2.7-4.7l1.7-2.9c2.5-4.2,5.9-2.6,3.8,1.1L236.2,19.2z"/> </g> <rect x="1.7" y="69.2" transform="matrix(0.7073 -0.707 0.707 0.7073 -50.128 25.4947)" class="st0" width="8.1" height="8.1"/> <rect x="353.7" y="69.2" transform="matrix(0.7072 -0.707 0.707 0.7072 52.9509 274.3682)" class="st0" width="8.1" height="8.1"/> <g> <polygon class="st1" points="46.8,73.5 48.9,73.5 48.9,65.2 52.2,65.2 52.2,63.1 46.8,63.1 	"/> <path class="st1" d="M61.7,75V62.3c0-1.8-1.1-3.3-2.6-4.1c0.3,0.6,0.5,1.3,0.5,2v12.7c0,1.4-0.6,2.6-1.7,3.5c0.9,1,1.7,2.1,1.7,3.7
		v14.1c0,2.5-2.1,4.6-4.6,4.6H41.5v2.1h15.6c2.5,0,4.6-2.1,4.6-4.6V82.2c0-1.6-0.7-2.7-1.7-3.7C61.1,77.7,61.7,76.4,61.7,75z"/> <polygon class="st1" points="46.8,91.3 48.9,91.3 48.9,83 52.2,83 52.2,80.9 46.8,80.9 	"/> </g> <g> <polygon class="st1" points="79.8,91.3 81.9,91.3 81.9,65.2 85.2,65.2 85.2,63.1 79.8,63.1 	"/> <path class="st1" d="M92.1,58.3c0.3,0.6,0.5,1.3,0.5,2v34c0,2.5-2.1,4.6-4.6,4.6H77c-0.7,0-1.4-0.2-2-0.5c0.7,1.5,2.3,2.6,4.1,2.6
		h11.1c2.5,0,4.6-2.1,4.6-4.6v-34C94.7,60.5,93.6,59,92.1,58.3z"/> </g> <g> <polygon class="st1" points="112.8,73.5 114.9,73.5 114.9,65.2 118.2,65.2 118.2,63.1 112.8,63.1 	"/> <path class="st1" d="M125.1,82.5c1.6-0.7,2.6-2.3,2.6-4.1V62.3c0-1.8-1.1-3.4-2.6-4.1c0.3,0.6,0.5,1.3,0.5,2v16.1
		c0,1.7-1,3.3-2.6,4.1l3.1,18.4h-5.7l0.4,2.1h7.4L125.1,82.5z"/> <polygon class="st1" points="115.7,80.9 112.8,80.9 112.8,98.8 107.5,98.8 107.5,100.9 114.9,100.9 114.9,83 116,83 	"/> </g> <g> <polygon class="st1" points="144.8,91.3 146.9,91.3 146.9,65.2 150.2,65.2 150.2,63.1 144.8,63.1 	"/> <path class="st1" d="M157.2,58.3c0.3,0.6,0.5,1.3,0.5,2v34c0,2.5-2.1,4.6-4.6,4.6H142c-0.7,0-1.4-0.2-2-0.5
		c0.7,1.5,2.3,2.6,4.1,2.6h11.1c2.5,0,4.6-2.1,4.6-4.6v-34C159.7,60.5,158.7,59,157.2,58.3z"/> </g> <g> <polygon class="st1" points="177.9,91.3 179.9,91.3 179.9,65.2 183.2,65.2 183.2,63.1 177.9,63.1 	"/> <path class="st1" d="M190.2,58.3c0.3,0.6,0.5,1.3,0.5,2v34c0,2.5-2.1,4.6-4.6,4.6h-13.6v2.1h15.6c2.5,0,4.6-2.1,4.6-4.6v-34
		C192.8,60.5,191.7,59,190.2,58.3z"/> </g> <polygon class="st1" points="211.2,57.8 211.2,98.8 205.9,98.8 205.9,100.9 213.3,100.9 213.3,57.8 "/> <g> <polygon class="st1" points="244.1,57.8 244.1,98.8 238.2,98.8 238.8,100.9 246.2,100.9 246.2,57.8 	"/> <polygon class="st1" points="231.3,79.9 231.3,98.8 226,98.8 226,100.9 233.4,100.9 233.4,87.2 	"/> </g> <g> <path class="st1" d="M263.6,83h6.1v-2.1h-8.2c-0.7,0-1.4-0.2-2-0.5C260.2,81.9,261.8,83,263.6,83z"/> <polygon class="st1" points="266.4,85.7 264.3,86.2 264.3,91.3 266.4,91.3 	"/> <path class="st1" d="M276.7,58.3c0.3,0.6,0.5,1.3,0.5,2V69l-5.4,1.2v2.6l7.5-1.7v-8.7C279.2,60.5,278.2,59,276.7,58.3z"/> <path class="st1" d="M276.7,76.1c0.3,0.6,0.5,1.3,0.5,2v16.2c0,2.5-2.1,4.6-4.6,4.6h-11.1c-0.7,0-1.4-0.2-2-0.5
		c0.7,1.5,2.3,2.6,4.1,2.6h11.1c2.5,0,4.6-2.1,4.6-4.6V80.1C279.2,78.3,278.2,76.8,276.7,76.1z"/> <polygon class="st1" points="264.3,63.1 264.3,73.5 266.4,73.5 266.4,65.2 269.7,65.2 269.7,63.1 	"/> </g> <g> <polygon class="st1" points="298,80.9 297.3,80.9 297.3,98.8 292,98.8 292,100.9 299.4,100.9 299.4,85.4 	"/> <polygon class="st1" points="313.2,57.8 310.4,57.8 304.2,77.2 311.1,98.8 305.1,98.8 305.6,100.6 305.7,100.9 313.2,100.9 
		306.3,79.3 	"/> </g> <polygon class="st1" points="330.5,57.8 330.5,98.8 325.2,98.8 325.2,100.9 332.6,100.9 332.6,57.8 "/> <g id="logo-desktop-UUIVGv.tif"> <g> <path class="st0" d="M167.9,123.8c0.5,0,0.9,0,1.4,0c5.4,0.3,9.7,1.7,12.4,4.7c2.7-3,7-4.5,12.5-4.7c0.5,0,0.9,0,1.3,0
			c12.1,0.8,17.6,9.5,27.3,13.2c1.4,0.5,3.2,1.2,4.8,1c2.5-0.3,4.1-2.8,3.7-5.6c-0.3-3-3.3-5.6-6.6-4.2c-0.5,0.2-0.8,0.5-1.2,0.8
			c-0.3,0.2-0.5,0.8-1.2,0.6c-0.6-0.5,0-1.2,0.3-1.7c1.1-1.9,2.9-3.2,6.1-3c5.6,0.4,10.7,5.3,9.8,12.8
			c-1.9,11.2-12.1,14.1-24.2,15.2c-1.3,0-2.6,0-3.9,0c-12.5-0.7-21.4-5.1-28.8-11c-7.5,5.8-16.3,10.3-28.9,11c-1.3,0-2.6,0-3.9,0
			c-12.2-1.1-22.4-4-24.2-15.5c-0.7-8.2,4.2-12.2,9.8-12.6c3.1-0.2,5,1.1,6.1,3c0.3,0.5,0.8,1.2,0.3,1.7c-0.6,0.1-0.9-0.4-1.2-0.6
			c-0.7-0.7-1.5-1.2-2.8-1.2c-3.9-0.1-6.1,4.2-4.5,7.6c0.5,1.2,1.8,2.4,3.4,2.5c1.6,0.1,3.4-0.5,4.8-1c1.5-0.5,2.7-1.2,3.9-1.9
			C151.9,130.8,157.6,124.8,167.9,123.8z"/> </g> </g> <rect x="361.5" y="79.6" transform="matrix(-0.707 0.7072 -0.7072 -0.707 681.3947 -120.0366)" class="st1" width="8.1" height="2.9"/> <rect x="9.5" y="79.7" transform="matrix(-0.7071 0.7071 -0.7071 -0.7071 80.5455 128.9084)" class="st1" width="8.1" height="2.9"/> <g> <path class="st0" d="M55.6,69c0,1.4-0.6,2.6-1.7,3.5c0.9,1,1.7,2.1,1.7,3.7v14.1c0,2.5-2.1,4.6-4.6,4.6H35.4V51.7h15.6
		c2.5,0,4.6,2,4.6,4.6L55.6,69L55.6,69z M48.2,59.1h-5.4v10.4h5.4V59.1z M48.2,76.9h-5.4v10.5h5.4V76.9z"/> <path class="st0" d="M84.1,51.7c2.5,0,4.6,2,4.6,4.6v34c0,2.5-2.1,4.6-4.6,4.6H73c-2.5,0-4.6-2.1-4.6-4.6v-34c0-2.5,2-4.6,4.6-4.6
		H84.1z M81.2,59.1h-5.4v28.3h5.4V59.1z"/> <path class="st0" d="M114.7,94.8l-3-17.9h-2.8v17.9h-7.4V51.7h15.6c2.5,0,4.5,2,4.5,4.6v16.1c0,1.7-1,3.3-2.6,4.1l3.1,18.4H114.7z
		 M114.2,59.1h-5.4v10.4h5.4V59.1z"/> <path class="st0" d="M149.1,51.7c2.5,0,4.6,2,4.6,4.6v34c0,2.5-2.1,4.6-4.6,4.6h-11.1c-2.5,0-4.6-2.1-4.6-4.6v-34
		c0-2.5,2-4.6,4.6-4.6H149.1z M146.2,59.1h-5.4v28.3h5.4V59.1z"/> <path class="st0" d="M182.2,51.7c2.5,0,4.6,2,4.6,4.6v34c0,2.5-2.1,4.6-4.6,4.6h-15.6V51.7H182.2z M179.3,59.1h-5.4v28.3h5.4V59.1z
		"/> <path class="st0" d="M199.9,51.7h7.4v43.1h-7.4V51.7z"/> <path class="st0" d="M240.2,51.7v43.1h-7.4L227.4,76v18.8H220V51.7h7.3l5.4,17.7V51.7H240.2z"/> <path class="st0" d="M268.6,69.5c2.5,0,4.6,2,4.6,4.6v16.2c0,2.5-2.1,4.6-4.6,4.6h-11.1c-2.5,0-4.6-2.1-4.6-4.6v-8.9l7.4-1.7v7.7
		h5.4V76.9h-8.2c-2.5,0-4.6-2-4.6-4.6V56.3c0-2.5,2-4.6,4.6-4.6h11.1c2.5,0,4.6,2,4.6,4.6V65l-7.5,1.7v-7.6h-5.4v10.4H268.6z"/> <path class="st0" d="M300.2,73.2l6.9,21.6h-7.5l-0.1-0.2l-5.5-17.7h-0.7v17.9H286V51.7h7.4v17.8h0.6l5.7-17.8h7.5L300.2,73.2z"/> <path class="st0" d="M319.2,51.7h7.4v43.1h-7.4V51.7z"/> </g> </symbol><symbol viewBox="0 0 60 60" id="logo-htmlacademy"><path fill="#2E368F" d="M30.2 5h-.2l-19.7 2.1v36.2l19.7 11.7 19.7-11.7v-36.2l-19.5-2.1zm17 36.8l-17.2 10.2-17.2-10.2v-14.8l17.1 10.2v1.8l-11.7-7v1.8l11.8 7.1v1.9l-11.8-7v1.8l11.8 7 11.9-7.1v-7.6l5.3-3.2v15.1zm-.1-17l-4.7 2.8-2.2 1.3-10.3-6.1v1.8l8.8 5.3h-.1l-.2.1-1.3.7-7.3-4.3v1.8l5.8 3.4-1.4.9-4.3-2.6v1.8l2.9 1.7-2.9 1.7-17-10.1 17-10.2 17.2 10zm.1-1.8l-17.3-10.2-17.1 10.2v-13.6l17.2-1.8 17.2 1.8v13.6z"/></symbol><symbol viewBox="-120 370.5 369.5 50.5" id="logo-mobile"> <style type="text/css"> .st0{fill:#FFFFFF;} .st1{fill:#636466;} </style> <rect x="-118.3" y="389.2" transform="matrix(-0.7073 0.707 -0.707 -0.7073 82.9093 752.1465)" class="st0" width="8.1" height="8.1"/> <rect x="233.7" y="389.2" transform="matrix(-0.7072 0.707 -0.707 -0.7072 683.8947 503.2608)" class="st0" width="8.1" height="8.1"/> <g> <polygon class="st1" points="-73.2,393.5 -71.1,393.5 -71.1,385.2 -67.8,385.2 -67.8,383.1 -73.2,383.1 	"/> <path class="st1" d="M-58.3,395v-12.7c0-1.8-1.1-3.3-2.6-4.1c0.3,0.6,0.5,1.3,0.5,2v12.7c0,1.4-0.6,2.6-1.7,3.5
		c0.9,1,1.7,2.1,1.7,3.7v14.1c0,2.5-2.1,4.6-4.6,4.6h-13.5v2.1h15.6c2.5,0,4.6-2.1,4.6-4.6v-14.1c0-1.6-0.7-2.7-1.7-3.7
		C-58.9,397.7-58.3,396.4-58.3,395z"/> <polygon class="st1" points="-73.2,411.3 -71.1,411.3 -71.1,403 -67.8,403 -67.8,400.9 -73.2,400.9 	"/> </g> <g> <polygon class="st1" points="-40.2,411.3 -38.1,411.3 -38.1,385.2 -34.8,385.2 -34.8,383.1 -40.2,383.1 	"/> <path class="st1" d="M-27.9,378.3c0.3,0.6,0.5,1.3,0.5,2v34c0,2.5-2.1,4.6-4.6,4.6h-11c-0.7,0-1.4-0.2-2-0.5
		c0.7,1.5,2.3,2.6,4.1,2.6h11.1c2.5,0,4.6-2.1,4.6-4.6v-34C-25.3,380.5-26.4,379-27.9,378.3z"/> </g> <g> <polygon class="st1" points="-7.2,393.5 -5.1,393.5 -5.1,385.2 -1.8,385.2 -1.8,383.1 -7.2,383.1 	"/> <path class="st1" d="M5.1,402.5c1.6-0.7,2.6-2.3,2.6-4.1v-16.1c0-1.8-1.1-3.4-2.6-4.1c0.3,0.6,0.5,1.3,0.5,2v16.1
		c0,1.7-1,3.3-2.6,4.1l3.1,18.4H0.4l0.4,2.1h7.4L5.1,402.5z"/> <polygon class="st1" points="-4.3,400.9 -7.2,400.9 -7.2,418.8 -12.5,418.8 -12.5,420.9 -5.1,420.9 -5.1,403 -4,403 	"/> </g> <g> <polygon class="st1" points="24.8,411.3 26.9,411.3 26.9,385.2 30.2,385.2 30.2,383.1 24.8,383.1 	"/> <path class="st1" d="M37.2,378.3c0.3,0.6,0.5,1.3,0.5,2v34c0,2.5-2.1,4.6-4.6,4.6H22c-0.7,0-1.4-0.2-2-0.5c0.7,1.5,2.3,2.6,4.1,2.6
		h11.1c2.5,0,4.6-2.1,4.6-4.6v-34C39.7,380.5,38.7,379,37.2,378.3z"/> </g> <g> <polygon class="st1" points="57.9,411.3 59.9,411.3 59.9,385.2 63.2,385.2 63.2,383.1 57.9,383.1 	"/> <path class="st1" d="M70.2,378.3c0.3,0.6,0.5,1.3,0.5,2v34c0,2.5-2.1,4.6-4.6,4.6H52.5v2.1h15.6c2.5,0,4.6-2.1,4.6-4.6v-34
		C72.8,380.5,71.7,379,70.2,378.3z"/> </g> <polygon class="st1" points="91.2,377.8 91.2,418.8 85.9,418.8 85.9,420.9 93.3,420.9 93.3,377.8 "/> <g> <polygon class="st1" points="124.1,377.8 124.1,418.8 118.2,418.8 118.8,420.9 126.2,420.9 126.2,377.8 	"/> <polygon class="st1" points="111.3,399.9 111.3,418.8 106,418.8 106,420.9 113.4,420.9 113.4,407.2 	"/> </g> <g> <path class="st1" d="M143.6,403h6.1v-2.1h-8.2c-0.7,0-1.4-0.2-2-0.5C140.2,401.9,141.8,403,143.6,403z"/> <polygon class="st1" points="146.4,405.7 144.3,406.2 144.3,411.3 146.4,411.3 	"/> <path class="st1" d="M156.7,378.3c0.3,0.6,0.5,1.3,0.5,2v8.7l-5.4,1.2v2.6l7.5-1.7v-8.7C159.2,380.5,158.2,379,156.7,378.3z"/> <path class="st1" d="M156.7,396.1c0.3,0.6,0.5,1.3,0.5,2v16.2c0,2.5-2.1,4.6-4.6,4.6h-11.1c-0.7,0-1.4-0.2-2-0.5
		c0.7,1.5,2.3,2.6,4.1,2.6h11.1c2.5,0,4.6-2.1,4.6-4.6v-16.3C159.2,398.3,158.2,396.8,156.7,396.1z"/> <polygon class="st1" points="144.3,383.1 144.3,393.5 146.4,393.5 146.4,385.2 149.7,385.2 149.7,383.1 	"/> </g> <g> <polygon class="st1" points="178,400.9 177.3,400.9 177.3,418.8 172,418.8 172,420.9 179.4,420.9 179.4,405.4 	"/> <polygon class="st1" points="193.2,377.8 190.4,377.8 184.2,397.2 191.1,418.8 185.1,418.8 185.6,420.6 185.7,420.9 193.2,420.9 
		186.3,399.3 	"/> </g> <polygon class="st1" points="210.5,377.8 210.5,418.8 205.2,418.8 205.2,420.9 212.6,420.9 212.6,377.8 "/> <rect x="241.6" y="399.7" transform="matrix(0.707 -0.7072 0.7072 0.707 -211.7472 291.2552)" class="st1" width="8.1" height="2.9"/> <rect x="-110.5" y="399.7" transform="matrix(0.7071 -0.7071 0.7071 0.7071 -314.7953 42.2339)" class="st1" width="8.1" height="2.9"/> <g> <path class="st0" d="M-64.4,389c0,1.4-0.6,2.6-1.7,3.5c0.9,1,1.7,2.1,1.7,3.7v14.1c0,2.5-2.1,4.6-4.6,4.6h-15.6v-43.2H-69
		c2.5,0,4.6,2,4.6,4.6V389L-64.4,389z M-71.8,379.1h-5.4v10.4h5.4V379.1z M-71.8,396.9h-5.4v10.5h5.4V396.9z"/> <path class="st0" d="M-35.9,371.7c2.5,0,4.6,2,4.6,4.6v34c0,2.5-2.1,4.6-4.6,4.6H-47c-2.5,0-4.6-2.1-4.6-4.6v-34
		c0-2.5,2-4.6,4.6-4.6C-47,371.7-35.9,371.7-35.9,371.7z M-38.8,379.1h-5.4v28.3h5.4V379.1z"/> <path class="st0" d="M-5.3,414.8l-3-17.9h-2.8v17.9h-7.4v-43.1h15.6c2.5,0,4.5,2,4.5,4.6v16.1c0,1.7-1,3.3-2.6,4.1l3.1,18.4h-7.4
		V414.8z M-5.8,379.1h-5.4v10.4h5.4V379.1z"/> <path class="st0" d="M29.1,371.7c2.5,0,4.6,2,4.6,4.6v34c0,2.5-2.1,4.6-4.6,4.6H18c-2.5,0-4.6-2.1-4.6-4.6v-34c0-2.5,2-4.6,4.6-4.6
		C18,371.7,29.1,371.7,29.1,371.7z M26.2,379.1h-5.4v28.3h5.4V379.1z"/> <path class="st0" d="M62.2,371.7c2.5,0,4.6,2,4.6,4.6v34c0,2.5-2.1,4.6-4.6,4.6H46.6v-43.2H62.2z M59.3,379.1h-5.4v28.3h5.4V379.1z
		"/> <path class="st0" d="M79.9,371.7h7.4v43.1h-7.4V371.7z"/> <path class="st0" d="M120.2,371.7v43.1h-7.4l-5.4-18.8v18.8H100v-43.1h7.3l5.4,17.7v-17.7H120.2z"/> <path class="st0" d="M148.6,389.5c2.5,0,4.6,2,4.6,4.6v16.2c0,2.5-2.1,4.6-4.6,4.6h-11.1c-2.5,0-4.6-2.1-4.6-4.6v-8.9l7.4-1.7v7.7
		h5.4v-10.5h-8.2c-2.5,0-4.6-2-4.6-4.6v-16c0-2.5,2-4.6,4.6-4.6h11.1c2.5,0,4.6,2,4.6,4.6v8.7l-7.5,1.7v-7.6h-5.4v10.4H148.6z"/> <path class="st0" d="M180.2,393.2l6.9,21.6h-7.5l-0.1-0.2l-5.5-17.7h-0.7v17.9H166v-43.1h7.4v17.8h0.6l5.7-17.8h7.5L180.2,393.2z"/> <path class="st0" d="M199.2,371.7h7.4v43.1h-7.4V371.7z"/> </g> </symbol><symbol viewBox="-120 320 369.5 101" id="logo-tablet"> <style type="text/css"> .st0{fill:#FFFFFF;} .st1{fill:#636466;} </style> <g> <path class="st0" d="M-0.1,331.4C7,329,7.6,320,0.5,320c-1.9,0-4.3,1.4-5.9,4.2l-9.6,16.5c-0.4,0.8-0.9,1.4-1.4,2
		c-2.5-3.4-1.7-8.5,1.7-10.7l-1.4-1.8c-7.5,4.8-5.3,18.5,7.2,18.5C1.8,348.7,6.7,336-0.1,331.4z M-8.9,346c-2.1,0-3.8-0.5-5.1-1.2
		c0.6-0.7,1.2-1.6,1.8-2.5l6-10.4l1,0.1C3,333.7-0.3,346-8.9,346z M-5.1,329.8l2.9-4.9c2.6-4.5,5.9-1.8,4.1,1.5
		C0.5,328.9-1.5,329.7-5.1,329.8z"/> <path class="st0" d="M139.2,339l-0.2,0.3c-2,2.3-4.3,4.2-6.5,5c0.6-0.9,1-1.9,1.5-2.7l3.9-6.7c3.3-5.6-2.1-7.5-5.7-4.3l0.7-1.2
		h-3.6l-5.6,9.7l0,0l-0.2,0.3c-1.6,1.7-3.6,2.6-5.4,2.6l3.4-5.8c2.2-3.7,0.2-7.3-3.2-7.3c-2.7,0-4.9,1.1-6.9,4.7l-1.7,3l-1.5,2.5
		l-0.2,0.2c-2.6,3-5.1,5.3-6.6,5.3c-0.8,0-1.2-0.5-0.4-1.9l5.1-9c1.5-2.7,0.1-4.7-1.9-4.7c-1.5,0-3.2,0.9-5,2.7l5.7-9.9h-3.6
		L91.4,339l-0.2,0.2c-1.3,1.5-2.9,2.9-4.3,3.9c1.1-3.4,0.9-8.6,3.1-13.1l-2.7-1.4c-1.5,2-4.7,6.7-7.9,10.4l0,0l0,0l-0.2,0.3
		c-2.6,3-5.1,5.3-6.6,5.3c-0.8,0-1.2-0.5-0.4-1.9l3.6-6.2c1.2-2.2,0.6-3.4-0.5-4.8l-2-2.4c-0.5-0.7-0.5-1.4,0.2-2.1l-1.8-2
		c-2,1.8-2.2,3.8-0.9,5.5L71,331c-1.6,2.2-3.7,5.2-6,8l-0.2,0.3c-2.6,3-5.9,5.3-8.3,5.3c-2.2,0-3.5-1.4-1.8-4.2l0.3-0.6
		c2.3,1,6.6,0.5,9.3-4.1l0.5-0.9c1.9-3.3,0.1-5.7-2.8-5.7c-2.9,0-5.2,1.5-6.7,4.1l-3.4,5.9l-0.2,0.2c-1.6,1.8-3.6,2.6-5.4,2.6
		l3.4-5.8c0.9-1.6,1.3-2.9,1.3-4.1c0-1.8-1.2-3.2-3.2-3.2c-0.9,0-1.6,0.3-2.3,0.8l4.5-7.8h-3.6l-10,17.2l-0.2,0.2
		c-2.6,3-5.1,5.3-6.6,5.3c-0.8,0-1.2-0.5-0.4-1.9l3.6-6.2c1.2-2.2,0.6-3.4-0.5-4.8l-2-2.4c-0.5-0.7-0.5-1.4,0.2-2.1l-1.8-2
		c-2,1.8-2.2,3.8-0.9,5.5l0.3,0.4c-1.6,2.2-3.7,5.2-6,8l-0.2,0.3c-2.6,3-5.1,5.3-6.6,5.3c-0.8,0-1.2-0.5-0.4-1.9l5.7-10.1h-2
		c0.1-1.5-1.4-3.6-3.7-3.6c-1.9,0-4.6,1.5-6.1,4.1l-5,8.6c-1.5,2.6-0.4,5.1,2.4,5.1c1.4,0,3.2-0.9,4.9-2.3c0.2,1.4,1.3,2.3,3.1,2.3
		c2.9,0,6.3-3.1,9.3-6.6l0,0c1.7-2,3-3.8,5.9-7.6l0.5,0.6c0.4,0.6,0.6,1.3,0.2,2l-3.8,6.5c-1.5,2.6-0.4,5.1,2.4,5.1
		c2.1,0,4.3-1.5,6.5-3.7l0,0c0,2.4,1.8,3.8,4.1,3.8c2,0,4.3-1,6.1-3.3c0.3,0,0.5,0,0.8,0c1.3,0,3.1-0.5,4.7-1.4
		c-0.2,2.6,1.7,4.5,4.8,4.5c4,0,8-3.1,11-6.6c1.7-2,3-3.8,5.9-7.6l0.5,0.6c0.4,0.6,0.6,1.3,0.2,2l-3.8,6.5c-1.5,2.6-0.4,5.1,2.4,5.1
		c2.9,0,6.3-3.1,9.3-6.6l0,0l0,0c2-2.3,3.8-4.8,5.1-6.5c-1.4,3.7-0.6,10.3-4,10.3c-1.2,0-1.7-1.3-1.7-1.3l-2.2,1.2
		c0,0,0.6,2.9,3.9,2.9c0.3,0,0.6,0,1-0.1h0.1c1.9-0.2,3.7-1.1,5.5-2.4l-1.2,2.1h3.6l5.4-9.4c5.5-6.9,7.9-6,6.4-3.4l-4.6,8
		c-1.5,2.6-0.4,5.1,2.4,5.1c2.1,0,4.4-1.6,6.6-3.7c0,4.5,6.3,5.4,10.1,0.6h0.8c1.1,0,2.5-0.3,3.8-0.9l-6.5,11.2h3.6l10.6-18.5
		c4-5.4,6.5-3.4,5.5-1.8l-5.4,9.3c-0.6,1-1.9,1.3-2.6,0l-2,1c0,0,0.6,2.9,3.9,2.9h0.2c5.2-0.1,8.6-3.2,11.5-6.6
		C140.3,339.6,139.7,339.1,139.2,339z M58.2,334c2.1-3.5,5.7-2.9,3.6,0.8l-0.5,0.9c-1.7,2.9-4,2.8-5.3,2.4L58.2,334z M12.6,339.6
		c-2.2,3.4-4.3,5-5.7,5c-0.8,0-1.2-0.5-0.4-1.9l5-8.7c1.9-3.3,5.7-2.5,4,0.8L12.6,339.6z M39.4,344.4c-0.8,0-1.4-0.5-1.4-1.4
		c0-0.5,0.2-1.1,0.6-1.8l1.3-2.2c0.3,1.5,1,2.9,2.3,3.7C41.4,343.9,40.3,344.4,39.4,344.4z M43.1,341c-0.9-0.7-1.5-1.8-1.5-3.2
		c0-2.5,2.5-6.7,4.5-6.7c0.8,0,1.3,0.6,1.3,1.5c0,0.6-0.2,1.3-0.7,2.1L43.1,341z M116.2,339.2H116c-1.2,0-2.1,1-2.1,2.1
		c0,0.4,0.1,0.9,0.3,1.2v0.1c-1.7,2.9-5.7,2.3-3.6-1.4l2.7-4.7l1.7-2.9c2.5-4.2,5.9-2.6,3.8,1.1L116.2,339.2z"/> </g> <rect x="-118.3" y="389.2" transform="matrix(-0.7073 0.707 -0.707 -0.7073 82.9093 752.1465)" class="st0" width="8.1" height="8.1"/> <rect x="233.7" y="389.2" transform="matrix(-0.7072 0.707 -0.707 -0.7072 683.8947 503.2608)" class="st0" width="8.1" height="8.1"/> <g> <polygon class="st1" points="-73.2,393.5 -71.1,393.5 -71.1,385.2 -67.8,385.2 -67.8,383.1 -73.2,383.1 	"/> <path class="st1" d="M-58.3,395v-12.7c0-1.8-1.1-3.3-2.6-4.1c0.3,0.6,0.5,1.3,0.5,2v12.7c0,1.4-0.6,2.6-1.7,3.5
		c0.9,1,1.7,2.1,1.7,3.7v14.1c0,2.5-2.1,4.6-4.6,4.6h-13.5v2.1h15.6c2.5,0,4.6-2.1,4.6-4.6v-14.1c0-1.6-0.7-2.7-1.7-3.7
		C-58.9,397.7-58.3,396.4-58.3,395z"/> <polygon class="st1" points="-73.2,411.3 -71.1,411.3 -71.1,403 -67.8,403 -67.8,400.9 -73.2,400.9 	"/> </g> <g> <polygon class="st1" points="-40.2,411.3 -38.1,411.3 -38.1,385.2 -34.8,385.2 -34.8,383.1 -40.2,383.1 	"/> <path class="st1" d="M-27.9,378.3c0.3,0.6,0.5,1.3,0.5,2v34c0,2.5-2.1,4.6-4.6,4.6h-11c-0.7,0-1.4-0.2-2-0.5
		c0.7,1.5,2.3,2.6,4.1,2.6h11.1c2.5,0,4.6-2.1,4.6-4.6v-34C-25.3,380.5-26.4,379-27.9,378.3z"/> </g> <g> <polygon class="st1" points="-7.2,393.5 -5.1,393.5 -5.1,385.2 -1.8,385.2 -1.8,383.1 -7.2,383.1 	"/> <path class="st1" d="M5.1,402.5c1.6-0.7,2.6-2.3,2.6-4.1v-16.1c0-1.8-1.1-3.4-2.6-4.1c0.3,0.6,0.5,1.3,0.5,2v16.1
		c0,1.7-1,3.3-2.6,4.1l3.1,18.4H0.4l0.4,2.1h7.4L5.1,402.5z"/> <polygon class="st1" points="-4.3,400.9 -7.2,400.9 -7.2,418.8 -12.5,418.8 -12.5,420.9 -5.1,420.9 -5.1,403 -4,403 	"/> </g> <g> <polygon class="st1" points="24.8,411.3 26.9,411.3 26.9,385.2 30.2,385.2 30.2,383.1 24.8,383.1 	"/> <path class="st1" d="M37.2,378.3c0.3,0.6,0.5,1.3,0.5,2v34c0,2.5-2.1,4.6-4.6,4.6H22c-0.7,0-1.4-0.2-2-0.5c0.7,1.5,2.3,2.6,4.1,2.6
		h11.1c2.5,0,4.6-2.1,4.6-4.6v-34C39.7,380.5,38.7,379,37.2,378.3z"/> </g> <g> <polygon class="st1" points="57.9,411.3 59.9,411.3 59.9,385.2 63.2,385.2 63.2,383.1 57.9,383.1 	"/> <path class="st1" d="M70.2,378.3c0.3,0.6,0.5,1.3,0.5,2v34c0,2.5-2.1,4.6-4.6,4.6H52.5v2.1h15.6c2.5,0,4.6-2.1,4.6-4.6v-34
		C72.8,380.5,71.7,379,70.2,378.3z"/> </g> <polygon class="st1" points="91.2,377.8 91.2,418.8 85.9,418.8 85.9,420.9 93.3,420.9 93.3,377.8 "/> <g> <polygon class="st1" points="124.1,377.8 124.1,418.8 118.2,418.8 118.8,420.9 126.2,420.9 126.2,377.8 	"/> <polygon class="st1" points="111.3,399.9 111.3,418.8 106,418.8 106,420.9 113.4,420.9 113.4,407.2 	"/> </g> <g> <path class="st1" d="M143.6,403h6.1v-2.1h-8.2c-0.7,0-1.4-0.2-2-0.5C140.2,401.9,141.8,403,143.6,403z"/> <polygon class="st1" points="146.4,405.7 144.3,406.2 144.3,411.3 146.4,411.3 	"/> <path class="st1" d="M156.7,378.3c0.3,0.6,0.5,1.3,0.5,2v8.7l-5.4,1.2v2.6l7.5-1.7v-8.7C159.2,380.5,158.2,379,156.7,378.3z"/> <path class="st1" d="M156.7,396.1c0.3,0.6,0.5,1.3,0.5,2v16.2c0,2.5-2.1,4.6-4.6,4.6h-11.1c-0.7,0-1.4-0.2-2-0.5
		c0.7,1.5,2.3,2.6,4.1,2.6h11.1c2.5,0,4.6-2.1,4.6-4.6v-16.3C159.2,398.3,158.2,396.8,156.7,396.1z"/> <polygon class="st1" points="144.3,383.1 144.3,393.5 146.4,393.5 146.4,385.2 149.7,385.2 149.7,383.1 	"/> </g> <g> <polygon class="st1" points="178,400.9 177.3,400.9 177.3,418.8 172,418.8 172,420.9 179.4,420.9 179.4,405.4 	"/> <polygon class="st1" points="193.2,377.8 190.4,377.8 184.2,397.2 191.1,418.8 185.1,418.8 185.6,420.6 185.7,420.9 193.2,420.9 
		186.3,399.3 	"/> </g> <polygon class="st1" points="210.5,377.8 210.5,418.8 205.2,418.8 205.2,420.9 212.6,420.9 212.6,377.8 "/> <rect x="241.6" y="399.7" transform="matrix(0.707 -0.7072 0.7072 0.707 -211.7472 291.2552)" class="st1" width="8.1" height="2.9"/> <rect x="-110.5" y="399.7" transform="matrix(0.7071 -0.7071 0.7071 0.7071 -314.7953 42.2339)" class="st1" width="8.1" height="2.9"/> <g> <path class="st0" d="M-64.4,389c0,1.4-0.6,2.6-1.7,3.5c0.9,1,1.7,2.1,1.7,3.7v14.1c0,2.5-2.1,4.6-4.6,4.6h-15.6v-43.2H-69
		c2.5,0,4.6,2,4.6,4.6V389L-64.4,389z M-71.8,379.1h-5.4v10.4h5.4V379.1z M-71.8,396.9h-5.4v10.5h5.4V396.9z"/> <path class="st0" d="M-35.9,371.7c2.5,0,4.6,2,4.6,4.6v34c0,2.5-2.1,4.6-4.6,4.6H-47c-2.5,0-4.6-2.1-4.6-4.6v-34
		c0-2.5,2-4.6,4.6-4.6C-47,371.7-35.9,371.7-35.9,371.7z M-38.8,379.1h-5.4v28.3h5.4V379.1z"/> <path class="st0" d="M-5.3,414.8l-3-17.9h-2.8v17.9h-7.4v-43.1h15.6c2.5,0,4.5,2,4.5,4.6v16.1c0,1.7-1,3.3-2.6,4.1l3.1,18.4h-7.4
		V414.8z M-5.8,379.1h-5.4v10.4h5.4V379.1z"/> <path class="st0" d="M29.1,371.7c2.5,0,4.6,2,4.6,4.6v34c0,2.5-2.1,4.6-4.6,4.6H18c-2.5,0-4.6-2.1-4.6-4.6v-34c0-2.5,2-4.6,4.6-4.6
		C18,371.7,29.1,371.7,29.1,371.7z M26.2,379.1h-5.4v28.3h5.4V379.1z"/> <path class="st0" d="M62.2,371.7c2.5,0,4.6,2,4.6,4.6v34c0,2.5-2.1,4.6-4.6,4.6H46.6v-43.2H62.2z M59.3,379.1h-5.4v28.3h5.4V379.1z
		"/> <path class="st0" d="M79.9,371.7h7.4v43.1h-7.4V371.7z"/> <path class="st0" d="M120.2,371.7v43.1h-7.4l-5.4-18.8v18.8H100v-43.1h7.3l5.4,17.7v-17.7H120.2z"/> <path class="st0" d="M148.6,389.5c2.5,0,4.6,2,4.6,4.6v16.2c0,2.5-2.1,4.6-4.6,4.6h-11.1c-2.5,0-4.6-2.1-4.6-4.6v-8.9l7.4-1.7v7.7
		h5.4v-10.5h-8.2c-2.5,0-4.6-2-4.6-4.6v-16c0-2.5,2-4.6,4.6-4.6h11.1c2.5,0,4.6,2,4.6,4.6v8.7l-7.5,1.7v-7.6h-5.4v10.4H148.6z"/> <path class="st0" d="M180.2,393.2l6.9,21.6h-7.5l-0.1-0.2l-5.5-17.7h-0.7v17.9H166v-43.1h7.4v17.8h0.6l5.7-17.8h7.5L180.2,393.2z"/> <path class="st0" d="M199.2,371.7h7.4v43.1h-7.4V371.7z"/> </g> </symbol></svg>